<?xml version="1.0"?><svg xmlns="http://www.w3.org/2000/svg"  viewBox="0 0 80 80" width="500px" height="500px">    <path d="M 44.585938 8 L 44.292969 8.2929688 L 34.65625 17.929688 L 53.005859 40.597656 L 70.195312 19 L 72.074219 19 L 61.423828 8 L 44.585938 8 z M 46.246094 10 L 59.753906 10 L 58.197266 17 L 47.802734 17 L 46.246094 10 z M 44.417969 10.996094 L 45.753906 17 L 38.414062 17 L 44.417969 10.996094 z M 61.574219 11.029297 L 67.353516 17 L 60.246094 17 L 61.574219 11.029297 z M 38.095703 19 L 46.246094 19 L 50.691406 34.5625 L 38.095703 19 z M 48.326172 19 L 57.675781 19 L 53 35.361328 L 48.326172 19 z M 59.753906 19 L 67.640625 19 L 55.337891 34.455078 L 59.753906 19 z M 23 39 C 22.017889 39 21.08157 39.18834 20.21875 39.509766 C 20.18892 39.514128 20.227207 39.495228 20.113281 39.533203 L 20.138672 39.523438 C 17.978144 40.181327 7.7324219 43.037109 7.7324219 43.037109 A 1.0001 1.0001 0 1 0 8.2675781 44.962891 C 8.2675781 44.962891 18.280242 42.176411 20.652344 41.457031 A 1.0001 1.0001 0 0 0 20.859375 41.402344 C 21.530108 41.145103 22.246496 41 23 41 C 24.098229 41 25.118963 41.297956 26.005859 41.814453 A 1.0001 1.0001 0 0 0 26.113281 41.867188 C 26.120981 41.870787 26.128969 41.875286 26.136719 41.878906 C 32.438552 44.85405 45.236876 51.261963 45.271484 51.279297 L 45.275391 51.283203 C 45.216481 51.251753 45.22225 51.255524 45.34375 51.333984 A 1.0001 1.0001 0 0 0 45.412109 51.375 C 46.357688 51.884801 47 52.853888 47 54 C 47 54.599629 46.823064 55.148508 46.519531 55.619141 C 45.639673 56.98846 43.938917 57.277762 42.347656 56.511719 A 1.0001 1.0001 0 0 0 42.291016 56.486328 L 41.609375 56.208984 A 1.0001 1.0001 0 1 0 40.855469 58.060547 L 41.537109 58.337891 L 41.480469 58.3125 C 43.492541 59.281125 45.947929 59.063701 47.521484 57.533203 L 48.609375 58.277344 A 1.0001 1.0001 0 0 0 49.556641 58.375 L 65.964844 51.591797 L 65.548828 50.761719 A 1.0001 1.0001 0 0 0 66.833984 51.234375 C 67.191771 51.083173 67.583266 51 68 51 C 69.668484 51 71 52.331516 71 54 C 71 55.138835 70.365199 56.105047 69.427734 56.619141 A 1.0001 1.0001 0 0 0 68.994141 57.902344 L 68.619141 57.058594 L 48.904297 67.523438 C 48.937547 67.507148 48.908401 67.521236 48.863281 67.535156 A 1.0001 1.0001 0 0 0 48.726562 67.589844 C 48.18739 67.849566 47.611406 68 47 68 C 46.411018 68 45.857148 67.864391 45.339844 67.626953 A 1.0001 1.0001 0 0 0 45.269531 67.597656 C 45.194433 67.569844 45.181733 67.564316 45.234375 67.587891 L 20.388672 57.078125 A 1.0001 1.0001 0 0 0 19.683594 57.050781 L 7.6835938 61.050781 A 1.0005646 1.0005646 0 0 0 8.3164062 62.949219 L 19.958984 59.068359 L 44.429688 69.417969 C 44.580551 69.486539 44.612518 69.488069 44.576172 69.474609 C 45.309494 69.800661 46.128375 70 47 70 C 47.942594 70 48.820929 69.764852 49.59375 69.392578 C 49.65405 69.371198 49.707407 69.357443 49.783203 69.320312 A 1.0001 1.0001 0 0 0 49.8125 69.304688 L 70.380859 58.388672 A 1.0001 1.0001 0 0 0 70.775391 58.003906 C 72.066526 57.104048 73 55.69514 73 54 C 73 51.250484 70.749516 49 68 49 C 67.452814 49 66.946312 49.148716 66.451172 49.3125 L 66.449219 49.3125 A 1.0001 1.0001 0 0 0 66.060547 49.388672 L 49.291016 56.320312 L 48.470703 55.759766 C 48.697951 55.189724 49 54.649238 49 54 C 49 52.100112 47.919752 50.453486 46.361328 49.613281 L 46.429688 49.654297 C 46.462986 49.675807 46.396628 49.613357 46.21875 49.517578 A 1.0001 1.0001 0 0 0 46.193359 49.503906 C 46.193359 49.503906 33.328754 43.060283 26.96875 40.058594 A 1.0001 1.0001 0 0 0 26.947266 40.048828 C 26.837778 40.000168 26.826829 39.999864 26.880859 40.021484 C 25.732293 39.380042 24.409831 39 23 39 z M 29 52 A 1 1 0 0 0 28 53 A 1 1 0 0 0 29 54 A 1 1 0 0 0 30 53 A 1 1 0 0 0 29 52 z M 32 53 A 1 1 0 0 0 31 54 A 1 1 0 0 0 32 55 A 1 1 0 0 0 33 54 A 1 1 0 0 0 32 53 z M 35 54 A 1 1 0 0 0 34 55 A 1 1 0 0 0 35 56 A 1 1 0 0 0 36 55 A 1 1 0 0 0 35 54 z M 38 55 A 1 1 0 0 0 37 56 A 1 1 0 0 0 38 57 A 1 1 0 0 0 39 56 A 1 1 0 0 0 38 55 z"/></svg>